<?xml version="1.0" standalone="no"?>
<!DOCTYPE svg PUBLIC "-//W3C//DTD SVG 20010904//EN"
 "http://www.w3.org/TR/2001/REC-SVG-20010904/DTD/svg10.dtd">
<svg version="1.0" xmlns="http://www.w3.org/2000/svg"
 width="512.000000pt" height="512.000000pt" viewBox="0 0 512.000000 512.000000"
 preserveAspectRatio="xMidYMid meet">

<g transform="translate(0.000000,512.000000) scale(0.100000,-0.100000)" stroke="none">
<path d="M3630 4793 c-37 -15 -72 -48 -90 -83 -18 -36 -20 -60 -20 -293 l0
-255 -337 -5 c-237 -3 -363 -9 -423 -20 -562 -100 -1018 -431 -1280 -928 -116
-222 -178 -449 -196 -719 -9 -142 16 -203 95 -236 43 -18 80 -18 124 1 43 18
72 55 120 151 92 183 260 385 425 509 156 117 365 211 570 256 88 20 134 22
500 26 l402 5 0 -255 c0 -283 4 -307 62 -350 44 -33 72 -40 123 -33 36 6 136
77 706 505 366 273 673 511 684 527 27 40 27 128 0 168 -15 22 -1135 873
-1322 1004 -32 23 -114 37 -143 25z"/>
<path d="M223 4461 c-72 -24 -127 -65 -163 -120 -64 -96 -60 31 -58 -1961 l3
-1815 26 -56 c33 -71 87 -125 158 -158 l56 -26 1835 0 1835 0 56 26 c71 33
125 87 158 158 l26 56 3 833 2 832 -320 0 -320 0 0 -635 0 -635 -1440 0 -1440
0 0 1440 0 1440 480 0 480 0 0 320 0 320 -662 0 c-612 -1 -667 -2 -715 -19z"/>
</g>
</svg>
