<?xml version="1.0" standalone="no"?>
<!DOCTYPE svg PUBLIC "-//W3C//DTD SVG 20010904//EN"
 "http://www.w3.org/TR/2001/REC-SVG-20010904/DTD/svg10.dtd">
<svg version="1.0" xmlns="http://www.w3.org/2000/svg"
 width="512.000000pt" height="512.000000pt" viewBox="0 0 512.000000 512.000000"
 preserveAspectRatio="xMidYMid meet">

<g transform="translate(0.000000,512.000000) scale(0.100000,-0.100000)" stroke="none">
<path d="M2645 4788 c-11 -7 -316 -234 -677 -505 -438 -328 -662 -502 -673
-522 -19 -38 -19 -124 0 -162 11 -20 235 -194 673 -523 362 -271 668 -498 679
-505 33 -17 114 -13 153 8 19 10 45 33 58 51 21 32 22 39 22 301 l0 269 283 0
c442 -1 586 -16 794 -85 194 -65 369 -172 524 -323 119 -114 193 -213 285
-379 82 -148 109 -173 186 -173 66 0 111 21 142 66 24 36 26 47 26 146 0 277
-94 600 -249 858 -233 388 -629 685 -1061 795 -189 48 -268 55 -610 55 l-320
0 0 269 c0 262 -1 269 -22 301 -13 18 -39 41 -58 51 -39 21 -124 25 -155 7z"/>
<path d="M268 4470 c-61 -11 -141 -55 -180 -99 -17 -19 -43 -60 -57 -91 l-26
-55 0 -1825 0 -1825 26 -55 c37 -80 81 -125 157 -162 l67 -33 1825 0 1825 0
67 33 c76 37 120 82 157 162 l26 55 3 988 3 987 -321 0 -320 0 0 -795 0 -795
-1440 0 -1440 0 0 1440 0 1440 160 0 160 0 0 320 0 320 -322 -1 c-178 -1 -344
-5 -370 -9z"/>
</g>
</svg>
