<?xml version="1.0" standalone="no"?>
<!DOCTYPE svg PUBLIC "-//W3C//DTD SVG 20010904//EN"
 "http://www.w3.org/TR/2001/REC-SVG-20010904/DTD/svg10.dtd">
<svg version="1.0" xmlns="http://www.w3.org/2000/svg"
 width="512.000000pt" height="512.000000pt" viewBox="0 0 512.000000 512.000000"
 preserveAspectRatio="xMidYMid meet">

<g transform="translate(0.000000,512.000000) scale(0.100000,-0.100000)" stroke="none">
<path d="M3300 3820 l0 -260 467 0 468 0 -725 -725 -725 -725 -520 520 -520
520 -873 -873 -872 -872 182 -183 183 -182 687 687 688 688 520 -520 520 -520
910 910 910 910 0 -468 0 -467 260 0 260 0 0 910 0 910 -910 0 -910 0 0 -260z"/>
</g>
</svg>
