<?xml version="1.0" standalone="no"?>
<!DOCTYPE svg PUBLIC "-//W3C//DTD SVG 20010904//EN"
 "http://www.w3.org/TR/2001/REC-SVG-20010904/DTD/svg10.dtd">
<svg version="1.0" xmlns="http://www.w3.org/2000/svg"
 width="512.000000pt" height="512.000000pt" viewBox="0 0 512.000000 512.000000"
 preserveAspectRatio="xMidYMid meet">

<g transform="translate(0.000000,512.000000) scale(0.100000,-0.100000)" stroke="none">
<path d="M3120 5101 c-339 -74 -601 -323 -691 -656 -19 -68 -23 -115 -27 -312
l-4 -233 -399 0 c-381 0 -402 -1 -439 -20 -26 -13 -47 -34 -60 -60 -19 -37
-20 -58 -20 -430 l0 -390 1015 0 c707 0 1030 -3 1067 -11 171 -36 310 -175
347 -347 8 -38 11 -370 11 -1152 0 -1172 0 -1170 -49 -1301 -12 -31 -39 -85
-60 -120 l-39 -64 462 -3 c511 -3 542 -1 648 55 113 59 200 174 227 301 8 38
11 528 11 1738 0 1669 0 1685 -20 1724 -13 26 -34 47 -60 60 -37 19 -58 20
-439 20 l-399 0 -4 233 c-4 197 -8 244 -27 312 -85 317 -332 564 -646 646
-116 30 -294 35 -405 10z m324 -301 c113 -29 190 -73 276 -160 87 -86 131
-163 160 -276 17 -64 20 -111 20 -271 l0 -193 -600 0 -600 0 0 193 c0 219 14
300 72 410 42 80 163 201 245 245 132 70 286 88 427 52z"/>
<path d="M78 2679 c-23 -12 -46 -35 -58 -59 -20 -39 -20 -57 -20 -1124 0 -771
3 -1100 11 -1138 37 -172 175 -310 347 -347 74 -16 2828 -16 2904 0 170 36
311 178 347 347 8 37 11 382 11 1138 0 1067 0 1085 -20 1124 -13 26 -34 47
-60 60 -39 20 -55 20 -1732 20 -1666 -1 -1694 -1 -1730 -21z m1042 -599 c65
-33 80 -75 80 -223 0 -218 48 -346 180 -477 86 -87 163 -131 276 -160 98 -25
190 -25 288 0 113 29 190 73 276 160 132 131 180 259 180 477 0 102 3 130 19
161 22 43 84 82 130 82 52 0 108 -35 132 -82 20 -39 21 -53 16 -203 -4 -118
-10 -181 -26 -240 -84 -315 -329 -561 -646 -646 -105 -29 -325 -32 -428 -6
-329 82 -583 330 -668 652 -15 58 -22 123 -26 238 -7 187 3 221 71 262 50 30
94 32 146 5z"/>
</g>
</svg>
