<?xml version="1.0" standalone="no"?>
<!DOCTYPE svg PUBLIC "-//W3C//DTD SVG 20010904//EN"
 "http://www.w3.org/TR/2001/REC-SVG-20010904/DTD/svg10.dtd">
<svg version="1.0" xmlns="http://www.w3.org/2000/svg"
 width="512.000000pt" height="512.000000pt" viewBox="0 0 512.000000 512.000000"
 preserveAspectRatio="xMidYMid meet">

<g transform="translate(0.000000,512.000000) scale(0.100000,-0.100000)" stroke="none">
<path d="M2480 5087 c-166 -102 -2429 -1582 -2448 -1601 -14 -14 -26 -40 -29
-64 -5 -37 -2 -45 30 -77 58 -58 85 -52 249 55 76 50 141 90 143 90 3 0 6
-735 7 -1632 l3 -1633 23 -43 c35 -66 88 -119 150 -149 l57 -28 1895 0 1895 0
57 28 c70 34 131 101 158 173 20 54 20 70 20 1669 0 888 3 1615 8 1615 4 0 50
-30 102 -66 182 -126 228 -138 287 -79 32 32 35 40 30 77 -4 27 -15 50 -34 68
-15 15 -579 386 -1253 825 -894 582 -1234 799 -1260 802 -27 3 -47 -3 -90 -30z
m864 -1471 c43 -18 66 -51 66 -96 0 -45 -23 -78 -66 -96 -50 -21 -1518 -21
-1568 0 -43 18 -66 51 -66 96 0 44 23 78 64 96 47 20 1521 20 1570 0z m37
-555 c47 -48 37 -130 -21 -164 -26 -15 -98 -17 -800 -17 -702 0 -774 2 -800
17 -58 34 -68 116 -21 164 l29 29 792 0 792 0 29 -29z m349 -1891 l0 -960
-105 0 -105 0 0 320 0 320 -425 0 -425 0 -2 -317 -3 -318 -105 0 -105 0 -3
318 -2 317 -425 0 -425 0 0 -320 0 -320 -105 0 -105 0 0 960 0 960 1170 0
1170 0 0 -960z"/>
<path d="M2078 1903 c-14 -9 -31 -27 -37 -40 -7 -16 -11 -155 -11 -408 l0
-385 530 0 530 0 0 385 c0 419 -1 429 -55 453 -19 9 -148 12 -478 12 -403 -1
-455 -2 -479 -17z"/>
</g>
</svg>
